<svg width="16" height="720" viewBox="0 0 16 720" fill="none" xmlns="http://www.w3.org/2000/svg">
<rect x="6.5" width="3" height="12" fill="#333333"/>
<circle cx="8" cy="27.5" r="7.5" fill="#333333"/>
<rect x="6.5" y="43" width="3" height="77" fill="#333333"/>
<rect x="6.5" y="120" width="3" height="12" fill="#333333"/>
<circle cx="8" cy="147.5" r="7.5" fill="#333333"/>
<rect x="6.5" y="163" width="3" height="77" fill="#333333"/>
<rect x="6.5" y="240" width="3" height="12" fill="#333333"/>
<circle cx="8" cy="267.5" r="7.5" fill="#333333"/>
<rect x="6.5" y="283" width="3" height="77" fill="#333333"/>
<rect x="6.5" y="360" width="3" height="12" fill="#333333"/>
<circle cx="8" cy="387.5" r="7.5" fill="#333333"/>
<rect x="6.5" y="403" width="3" height="77" fill="#333333"/>
<rect x="6.5" y="480" width="3" height="12" fill="#333333"/>
<circle cx="8" cy="507.5" r="7.5" fill="#333333"/>
<rect x="6.5" y="523" width="3" height="77" fill="#333333"/>
<rect x="6.5" y="600" width="3" height="12" fill="#333333"/>
<circle cx="8" cy="627.5" r="7.5" fill="#333333"/>
<rect x="6.5" y="643" width="3" height="77" fill="#333333"/>
</svg>
